<svg xmlns="http://www.w3.org/2000/svg" viewBox="0 0 131.67 74.82"><defs><style>.cls-1{fill:#1a2447;}</style></defs><title>資產 1</title><g id="圖層_2" data-name="圖層 2"><g id="圖層_1-2" data-name="圖層 1"><path class="cls-1" d="M31.52,0,51.79,11.7A22.51,22.51,0,0,1,63,31.18V50.53L38.54,36.39v-4l21,12.11V33.21A22.5,22.5,0,0,0,48.28,13.73L35,6.08V74.82L0,54.59V18.2l16.76,9.67A22.5,22.5,0,0,1,28,47.35V60.91l-3.51-2V49.38A22.5,22.5,0,0,0,13.25,29.9L3.51,24.28V52.56l28,16.17Z"/><path class="cls-1" d="M51.89,74.36A24,24,0,0,0,49.1,73a24.32,24.32,0,0,1-6.24,1.59,3.9,3.9,0,0,0-.8-1.19,29.42,29.42,0,0,0,5.1-1.14c-1.09-.39-2.21-.73-3.25-1A15.24,15.24,0,0,0,45,70.05l-2.34.12-.16-1.31c1,0,2.18-.08,3.48-.12a16,16,0,0,0,.91-1.43H43.42V64h4.07v-.69H44V61.13H42.44V59.76H44v-2h3.47V56.46H49.1v1.32h3.68v2h1.53v1.37H52.78v2.13H49.1V64h4.19v3.36H48.74c-.26.45-.53.89-.82,1.35l3-.14v-.83h1.65v.75l.93,0,0,1.21-1.05.06a4.1,4.1,0,0,1-1.78,2.46c1,.42,1.87.84,2.56,1.18Zm-6.76-8.22h2.36v-1H45.13Zm.6-7.15v.87h1.76V59Zm1.76,3v-1H45.73v1ZM47,70a8,8,0,0,1-.56.71c.83.24,1.72.54,2.54.84a3.76,3.76,0,0,0,1.74-1.73ZM49.1,59v.87H51V59ZM51,62v-1H49.1v1ZM49.1,65.14v1h2.38v-1Zm12.06-3.33a24.3,24.3,0,0,1-1.94,7.52,9.53,9.53,0,0,0,3.65,3.86,4.92,4.92,0,0,0-1.2,1.29A10.65,10.65,0,0,1,58.28,71a12.09,12.09,0,0,1-4,3.82,5.5,5.5,0,0,0-1.07-1.37,10.23,10.23,0,0,0,4.15-4.2,23.13,23.13,0,0,1-1.5-4.68,13.52,13.52,0,0,1-1,1.86,9.9,9.9,0,0,0-1.36-1.15c1.49-2.08,2.29-5.36,2.74-8.7l1.76.2c-.18,1.15-.38,2.31-.65,3.4h5.35v1.63Zm-4.24,0a27.67,27.67,0,0,0,1.34,5.38,25.7,25.7,0,0,0,1.14-5.38Z"/><path class="cls-1" d="M72.37,57.08a29.94,29.94,0,0,1-2.16,4.11V74.66h-2.1V64.09a16.58,16.58,0,0,1-1.83,2,11.89,11.89,0,0,0-1.16-1.87,21.41,21.41,0,0,0,5.29-7.65Zm13,15v1.77H71.54V72.11h7.74a67.22,67.22,0,0,0,2-9.55l2.16.32c-.6,3-1.44,6.69-2.25,9.23Zm-.83-10.38H72.43V59.94H84.58Zm-9.34,9.63a71.55,71.55,0,0,0-1.4-8.3l1.85-.38a69.25,69.25,0,0,1,1.6,8.14Zm2.54-11.52a17.77,17.77,0,0,0-1-3.14l2-.43a23.89,23.89,0,0,1,1.11,3Z"/><path class="cls-1" d="M96.68,61.57c-.06.93-.13,1.89-.27,2.82h9.48a6.74,6.74,0,0,1-.09.83c-.43,5.48-.85,7.67-1.74,8.48a3.19,3.19,0,0,1-2.12.78,34.86,34.86,0,0,1-3.76,0,3.52,3.52,0,0,0-.74-1.81c1.58.12,3.1.14,3.72.14a1.71,1.71,0,0,0,1.07-.24c.63-.46,1-2.3,1.38-6.35H96.1a11.41,11.41,0,0,1-6.46,8.6,5.75,5.75,0,0,0-1.52-1.51c5.53-2.51,6-7.33,6.27-11.7H88.55V59.76h9.54A19.68,19.68,0,0,0,96.68,57l2-.67a18.59,18.59,0,0,1,1.58,2.88l-1.49.57H108v1.81Z"/><path class="cls-1" d="M118.28,69.71c-2.36.9-4.88,1.81-6.87,2.5l-.64-1.88c.8-.22,1.78-.54,2.87-.9V63h-2.52V61.23h2.52V56.72h1.94v4.51h2.21V63h-2.21v5.84l2.3-.78ZM129.36,73c.53,0,.66-.22.73-1.43a5.1,5.1,0,0,0,1.58.61c-.18,1.81-.71,2.31-2.16,2.31h-2.87c-2,0-2.43-.46-2.43-2.13v-5.7H123c-.31,3.62-1.14,6.48-4.66,8.11a5.12,5.12,0,0,0-1.2-1.39c3.07-1.3,3.72-3.72,4-6.72h-2.45V58.45h2.27a19.66,19.66,0,0,0,.69-2l2.18.25a16.58,16.58,0,0,1-.89,1.79h7.47v8.18H126v5.68c0,.58.13.66.87.66Zm-8.9-11.16h3.1V59.94h-3.1Zm0,3.33h3.1v-1.9h-3.1Zm8-5.2h-3.07v1.87h3.07Zm0,3.3h-3.07v1.9h3.07Zm1.81,8.4c-.07-.18-.13-.4-.22-.6a19,19,0,0,0-3.61.5,7,7,0,0,0-.47-1.13,1,1,0,0,0,.64-.58,9.37,9.37,0,0,0,1.19-2.78l1.31.36a17,17,0,0,1-1.45,2.86l2-.16c-.24-.52-.49-1-.73-1.49l1-.34a21.36,21.36,0,0,1,1.42,2.92Z"/><path class="cls-1" d="M70.06,43.16h2.28c2.69,0,4.23,1.25,4.23,3.66S75,50.53,72.41,50.53H70.06Zm2.18,6.42c1.89,0,2.9-.93,2.9-2.76s-1-2.72-2.9-2.72h-.79v5.48Z"/><path class="cls-1" d="M79,43.16h1.39v7.37H79Z"/><path class="cls-1" d="M82.8,46.87c0-2.32,1.76-3.71,4.09-3.71a3.94,3.94,0,0,1,2.61.9l-.75.71a2.7,2.7,0,0,0-1.82-.63A2.71,2.71,0,1,0,87,49.56a2.57,2.57,0,0,0,1.39-.35V47.54H86.64v-.92h3V49.7a4.49,4.49,0,0,1-2.78.83C84.5,50.53,82.8,49.2,82.8,46.87Z"/><path class="cls-1" d="M92.23,43.16h1.38v7.37H92.23Z"/><path class="cls-1" d="M99.79,43.16h2.66c2,0,3.35.56,3.35,2.22s-1.4,2.36-3.31,2.36h-1.32v2.79H99.79Zm2.57,3.65c1.41,0,2.08-.45,2.08-1.43s-.73-1.29-2.13-1.29h-1.14v2.72Z"/><path class="cls-1" d="M111.48,48.43h-3l-.75,2.1h-1.41l2.91-7.37h1.6l2.91,7.37h-1.47Zm-.33-.91-.35-1c-.29-.8-.56-1.63-.83-2.46h0q-.37,1.26-.81,2.46l-.36,1Z"/><path class="cls-1" d="M114.83,46.87a3.66,3.66,0,0,1,4-3.71,3.76,3.76,0,0,1,2.49.9l-.75.71a2.61,2.61,0,0,0-1.71-.63,2.47,2.47,0,0,0-2.57,2.69,2.45,2.45,0,0,0,2.53,2.73,2.78,2.78,0,0,0,1.94-.76l.74.71a3.8,3.8,0,0,1-2.73,1A3.58,3.58,0,0,1,114.83,46.87Z"/><path class="cls-1" d="M123.61,43.16H125v3.49h0l3.34-3.49h1.53L127.19,46l3.17,4.52h-1.54l-2.48-3.6L125,48.31v2.22h-1.38Z"/></g></g></svg>